# xmcd
#
# Track frame offsets:
#	150
#	12388
#	23763
#	41020
#	57364
#	67426
#	78878
#	95608
#	110044
#	155339
#	172884
#	184338
#	195183
#	207919
#	220142
#	233692
#	244486
#	253577
#	264351
#	275004
#	284462
#	289724
#	302904
#	322190
#	339773
#
# Disc length: 4678 seconds
#
# Revision: 0
# Processed by: cddbd v1.5.2PL0 Copyright (c) Steve Scherf et al.
# Submitted via: audiograbber 1.83.01
#
DISCID=75124419
DTITLE=Various Artist - Nashville Stars On Tour - THE STOCKHOLM CONCERT, PART 1
DYEAR=2007
DGENRE=Country
TTITLE0=Blue Boys - Steel Guitar Rag - Introduction
TTITLE1=Anita Kerr Singers - Oh Lonesome Me
TTITLE2=Anita Kerr Singers - I'll Hold You In My Heart
TTITLE3=Anita Kerr Singers - Georgia On My Mind
TTITLE4=Anita Kerr Singers - Night Train to Memphis
TTITLE5=Blue Boys - Wheels
TTITLE6=Bobby Bare - Shame On Me
TTITLE7=Bobby Bare - 500 Miles Away From Home
TTITLE8=Bobby Bare - Medley Of Impersonations
TTITLE9=Bobby Bare - Detroit City
TTITLE10=Bobby Bare - Jambalaya
TTITLE11=Blue Boys - San Antonio Rose
TTITLE12=Chet Atkins - Alabama Jubilee
TTITLE13=Chet Atkins - Windy And Warm
TTITLE14=Chet Atkins - Drown In My Own Tears
TTITLE15=Chet Atkins - Wildwood Flower
TTITLE16=Chet Atkins - Yes Ma'am
TTITLE17=Chet Atkins - My Town
TTITLE18=Chet Atkins - Medley: Greensleeves, Streets Of Laredo
TTITLE19=Chet Atkins - Chets chats
TTITLE20=Chet Atkins - Show Me The Way To Go Home
TTITLE21=Chet Atkins - Yankee Doodle Dixie
TTITLE22=Chet Atkins - The Peanut Vendor
TTITLE23=Chet Atkins - Tiger Rag
TTITLE24=Chet Atkins - Gravy Waltz
EXTD=
EXTT0=
EXTT1=
EXTT2=
EXTT3=
EXTT4=
EXTT5=
EXTT6=
EXTT7=
EXTT8=
EXTT9=
EXTT10=
EXTT11=
EXTT12=
EXTT13=
EXTT14=
EXTT15=
EXTT16=
EXTT17=
EXTT18=
EXTT19=
EXTT20=
EXTT21=
EXTT22=
EXTT23=
EXTT24=
PLAYORDER=
